<?xml version="1.0" standalone="no"?>
<!DOCTYPE svg PUBLIC "-//W3C//DTD SVG 20010904//EN"
 "http://www.w3.org/TR/2001/REC-SVG-20010904/DTD/svg10.dtd">
<svg version="1.0" xmlns="http://www.w3.org/2000/svg"
 width="360.000000pt" height="360.000000pt" viewBox="0 0 360.000000 360.000000"
 preserveAspectRatio="xMidYMid meet">

<g transform="translate(0.000000,360.000000) scale(0.100000,-0.100000)"
fill="#000000" stroke="none">
<path d="M1300 2860 c-8 -5 -10 -10 -5 -10 6 0 17 5 25 10 8 5 11 10 5 10 -5
0 -17 -5 -25 -10z"/>
<path d="M2308 2863 c7 -3 16 -2 19 1 4 3 -2 6 -13 5 -11 0 -14 -3 -6 -6z"/>
<path d="M2490 2780 c0 -5 7 -10 15 -10 8 0 15 5 15 10 0 6 -7 10 -15 10 -8 0
-15 -4 -15 -10z"/>
<path d="M1915 2760 c-3 -6 1 -7 9 -4 18 7 21 14 7 14 -6 0 -13 -4 -16 -10z"/>
<path d="M2340 2762 c-46 -4 -82 -22 -76 -39 3 -8 -4 -17 -17 -22 -19 -8 -20
-10 -5 -16 12 -5 28 2 49 19 17 14 42 26 55 26 14 0 27 7 31 15 7 20 5 21 -37
17z"/>
<path d="M2575 2760 c-18 -7 -19 -8 -2 -15 9 -4 17 -12 17 -17 0 -6 -6 -5 -15
2 -12 10 -16 9 -21 -4 -3 -9 -4 -23 -1 -31 5 -12 1 -12 -21 -4 l-27 10 23 -24
c12 -13 19 -27 15 -30 -9 -10 -65 -8 -82 2 -19 13 -6 41 19 41 19 0 20 2 7 14
-12 12 -21 13 -54 3 -24 -7 -38 -17 -36 -24 3 -7 -1 -13 -7 -13 -10 0 -10 -4
0 -15 10 -12 9 -15 -7 -15 -17 0 -20 -6 -17 -38 4 -50 -7 -68 -34 -53 -30 16
-32 14 -28 -16 6 -42 17 -63 32 -63 12 0 13 -4 3 -22 -6 -13 -8 -20 -4 -16 5
4 14 3 21 -3 8 -7 14 -7 19 1 10 15 55 12 61 -5 8 -20 -13 -45 -37 -45 -11 0
-19 -4 -19 -9 0 -18 86 -35 96 -19 8 12 44 10 44 -3 0 -5 4 -8 8 -5 4 2 21 -1
37 -8 17 -7 47 -20 68 -30 21 -9 35 -21 32 -26 -3 -6 1 -10 9 -10 22 0 20 -36
-1 -44 -34 -13 -268 -20 -1153 -32 -440 -5 -837 -19 -902 -30 -21 -4 -35 -10
-32 -15 2 -4 16 -4 29 1 51 19 567 32 1020 26 512 -8 844 -30 860 -57 11 -16
-75 -30 -285 -44 -328 -24 -400 -40 -515 -119 -37 -25 -75 -46 -85 -46 -10 0
-49 27 -88 59 -39 33 -80 62 -91 66 -89 28 -241 22 -361 -15 l-65 -20 92 5
c51 2 116 8 145 11 l53 6 0 -44 c0 -43 -20 -78 -44 -78 -6 0 -16 -9 -23 -19
-11 -18 -13 -18 -25 -3 -7 10 -12 12 -13 5 0 -7 -7 -10 -15 -7 -8 4 -17 -1
-21 -10 -11 -28 -24 -17 -19 17 l5 32 -12 -27 c-13 -31 -33 -36 -42 -12 -5 12
-14 15 -36 10 -20 -4 -30 -2 -30 7 0 7 -9 18 -20 25 -18 11 -20 10 -20 -15 0
-14 -3 -24 -6 -20 -3 3 -15 -4 -27 -16 l-21 -21 -6 21 c-5 21 -6 21 -28 3 -12
-10 -22 -21 -22 -24 0 -4 10 -2 22 5 21 10 22 10 7 -5 -8 -9 -32 -19 -52 -23
l-37 -6 0 39 c0 38 0 38 -16 16 -13 -18 -19 -21 -30 -11 -11 9 -14 8 -14 -2 0
-8 -6 -5 -15 7 -11 15 -14 16 -15 4 0 -28 -40 -21 -52 8 -10 24 -12 25 -16 7
-4 -14 -9 -5 -18 30 -10 40 -12 44 -13 20 -1 -24 -3 -27 -12 -15 -8 11 -9 3
-4 -30 3 -24 8 -46 10 -49 3 -2 33 -8 67 -13 34 -4 70 -16 80 -25 14 -12 40
-17 99 -19 44 -1 82 -4 85 -7 3 -3 -23 -20 -57 -38 -97 -48 -187 -110 -259
-178 -63 -59 -64 -62 -34 -57 27 3 31 1 26 -16 -3 -15 -7 -16 -13 -7 -4 8 -11
11 -14 7 -9 -8 28 -79 51 -99 36 -31 59 -32 73 -2 11 23 10 29 -3 39 -24 17
-19 25 10 20 23 -5 25 -3 20 19 -7 27 11 35 20 10 3 -8 20 -21 37 -30 37 -18
38 -18 31 0 -5 12 0 12 27 5 48 -14 60 -30 23 -31 -16 -1 -33 -1 -38 0 -5 1 6
-15 23 -35 32 -36 33 -38 26 -105 l-7 -69 110 0 c117 0 125 3 137 52 8 32 107
98 146 98 l24 0 -25 20 c-14 11 -35 23 -47 26 -28 8 -30 24 -4 24 31 0 51 -11
51 -27 0 -13 2 -13 17 -2 9 8 26 14 37 14 15 0 20 5 18 19 -2 11 1 15 7 11 15
-9 14 -42 -1 -49 -7 -3 0 -4 15 -1 21 4 28 2 25 -7 -3 -8 -21 -13 -46 -13 -42
0 -57 -17 -27 -29 8 -3 15 -18 15 -33 l0 -27 -16 22 c-34 48 -125 9 -184 -80
-43 -65 -48 -90 -25 -144 12 -30 19 -35 42 -32 25 3 28 7 29 41 1 47 11 54 87
63 58 7 59 7 55 36 -3 20 -1 25 6 18 13 -13 82 -13 108 1 21 11 21 11 -1 -17
l-22 -29 28 -7 c15 -4 74 -5 130 -2 87 6 102 9 106 25 4 13 14 19 35 19 17 0
37 7 46 15 14 14 17 13 32 -10 19 -29 54 -33 71 -7 6 11 32 25 58 32 43 12 51
11 82 -5 34 -19 35 -19 46 0 7 11 14 49 17 85 l5 65 55 28 55 28 -37 -31 c-45
-38 -46 -49 -13 -98 33 -49 32 -72 -10 -122 -19 -23 -35 -48 -35 -56 0 -18
-37 -38 -45 -24 -3 5 -4 13 -2 17 2 5 -9 21 -24 37 l-27 28 -24 -53 -25 -54
24 -22 c13 -13 27 -23 30 -23 4 0 14 -6 22 -14 9 -8 32 -19 51 -24 32 -9 33
-11 13 -17 -12 -4 -31 -22 -42 -41 -12 -20 -28 -34 -39 -34 -10 0 -27 -9 -37
-20 -10 -11 -28 -20 -40 -20 -11 0 -27 -6 -34 -13 -11 -10 -12 -9 -6 3 8 13 6
13 -8 1 -9 -7 -23 -11 -31 -8 -8 3 -17 0 -20 -8 -3 -10 -24 -13 -73 -13 -37 1
-142 -6 -233 -14 -247 -23 -620 -15 -620 14 0 5 -9 6 -20 3 -11 -4 -48 3 -81
15 -34 11 -63 19 -66 17 -2 -3 9 -14 26 -26 139 -99 430 -135 1086 -134 681 1
964 42 1078 156 l40 40 -39 20 c-21 11 -42 25 -46 31 -5 6 -8 7 -8 1 0 -5 -10
6 -21 25 -31 49 -27 104 9 154 21 28 37 40 50 38 15 -2 24 9 41 47 11 27 21
57 21 65 0 20 -43 48 -63 41 -8 -4 -18 -2 -21 4 -4 5 9 14 28 19 19 6 44 19
55 29 11 10 44 27 73 37 57 20 75 32 65 42 -3 4 -18 -1 -31 -10 l-25 -16 10
33 c6 17 14 39 19 48 6 12 0 27 -21 53 -35 41 -30 46 14 14 l32 -23 -22 30
c-21 31 -98 105 -168 163 -27 22 -32 29 -15 21 24 -11 24 -10 8 6 -16 17 -15
19 7 37 13 10 28 18 34 18 15 0 14 24 -4 90 -16 62 -13 85 16 100 26 15 24 27
-8 35 -14 3 -59 20 -100 37 -54 23 -73 36 -73 50 0 29 24 32 139 21 58 -6 110
-7 114 -3 5 4 -31 18 -80 31 -102 27 -133 51 -133 103 0 19 -5 38 -10 41 -6 3
-8 21 -6 40 3 21 -1 38 -10 46 -8 6 -14 20 -14 29 0 10 -4 20 -9 22 -4 2 -12
14 -16 27 -5 16 -4 21 4 17 6 -4 11 -14 11 -23 0 -9 6 -13 15 -9 8 3 15 1 15
-4 0 -15 56 -12 69 4 9 11 4 13 -26 12 -33 -1 -38 2 -38 22 0 13 -8 28 -18 33
-9 6 -17 18 -17 27 0 13 -13 21 -45 30 -56 15 -63 47 -15 65 36 14 44 31 22
49 -15 12 -16 11 -4 -4 14 -18 0 -34 -19 -22 -6 3 -14 1 -18 -5 -5 -8 -15 -4
-33 12 -13 13 -30 21 -35 20 -6 -2 -14 1 -18 6 -3 6 1 11 10 11 13 0 14 4 5
20 -12 22 -15 23 -45 10z m83 -122 c4 -19 -35 -35 -50 -20 -6 6 -8 18 -4 27 8
21 50 16 54 -7z m46 -71 c15 -20 17 -30 8 -39 -13 -13 -40 5 -52 37 -17 44 12
45 44 2z m-204 -26 c0 -27 -15 -41 -41 -41 -21 0 -29 5 -29 18 0 10 3 22 7 25
10 10 63 8 63 -2z m198 -183 c17 -17 15 -48 -2 -48 -30 0 -46 13 -46 36 0 26
27 33 48 12z m92 -53 c0 -38 -3 -45 -20 -45 -23 0 -28 37 -10 71 18 32 30 21
30 -26z m-70 -305 l25 -8 -25 -1 c-14 0 -32 4 -40 9 -13 9 -13 10 0 9 8 -1 26
-5 40 -9z m-550 -40 c287 -16 302 -17 311 -32 13 -21 -1 -61 -33 -92 l-31 -28
-172 4 c-191 5 -185 3 -268 82 -26 25 -65 55 -85 67 l-37 20 65 -5 c36 -3 148
-10 250 -16z m-570 -81 c31 -14 70 -22 125 -23 44 -2 170 -18 280 -35 283 -46
328 -55 331 -66 2 -5 -38 -38 -89 -72 -106 -71 -267 -208 -267 -228 0 -7 -6
-18 -14 -24 -11 -9 -25 -2 -67 32 -62 51 -248 176 -298 202 -34 17 -35 17 -54
-6 -11 -13 -21 -23 -23 -21 -3 2 -10 1 -17 -2 -6 -2 -1 -3 13 -1 14 2 29 4 33
4 5 1 5 6 2 11 -3 6 -1 10 4 10 6 0 11 -4 11 -9 0 -5 17 -12 37 -16 27 -5 33
-9 22 -16 -11 -7 -11 -9 4 -9 23 0 22 -21 -3 -27 -11 -3 -18 -9 -15 -13 7 -11
-38 -18 -61 -9 -17 6 -17 8 9 19 32 16 37 50 6 50 -11 0 -18 -4 -14 -9 7 -12
-29 -33 -39 -24 -3 3 -6 0 -6 -8 0 -11 -2 -11 -10 1 -5 8 -10 10 -10 5 0 -6 5
-16 12 -23 9 -9 6 -12 -14 -12 -15 0 -33 -6 -40 -12 -7 -7 -22 -14 -33 -16
-18 -2 -18 -2 -2 8 21 13 22 30 2 30 -8 0 -15 8 -15 18 0 20 20 54 20 35 0 -7
7 -13 15 -13 8 0 14 6 13 12 -2 7 7 14 20 16 24 4 31 32 7 32 -8 0 -15 7 -15
16 0 13 -7 16 -37 11 l-38 -5 30 13 c26 11 32 11 48 -2 10 -10 17 -12 17 -5 0
27 -99 62 -217 78 -29 4 -53 9 -53 13 0 11 53 29 121 41 37 6 93 25 125 40 71
35 86 36 144 9z m-675 -169 c-3 -5 -1 -10 4 -10 6 0 11 -12 11 -27 1 -26 2
-26 14 -10 12 15 15 15 26 2 7 -8 19 -15 28 -15 13 0 13 2 -2 18 -15 18 -15
19 10 30 29 14 44 8 43 -16 0 -11 -3 -12 -6 -4 -6 14 -33 16 -33 2 0 -5 5 -10
11 -10 5 0 7 -4 4 -10 -3 -5 3 -10 14 -10 12 0 21 6 21 13 0 7 9 13 20 14 22
2 23 1 14 -21 -3 -9 -10 -13 -15 -10 -5 3 -12 -2 -15 -10 -3 -9 -14 -16 -24
-16 -10 0 -21 -10 -24 -22 -7 -22 -7 -22 -16 -3 -5 11 -9 15 -9 8 -1 -7 -8
-10 -16 -6 -10 3 -15 0 -13 -8 2 -10 -6 -13 -29 -11 -24 2 -33 -1 -33 -11 0
-10 -7 -13 -19 -10 -10 3 -22 0 -25 -6 -12 -19 -31 -12 -54 18 -22 30 -20 71
4 71 8 0 14 7 14 15 0 8 5 15 10 15 6 0 10 -4 10 -10 0 -5 4 -10 10 -10 5 0 7
7 4 15 -9 24 23 18 40 -7 9 -12 16 -18 16 -12 0 5 -5 15 -11 21 -8 8 -8 17 0
32 7 12 14 21 17 21 3 0 2 -4 -1 -10z m390 -9 c6 -3 14 -6 20 -6 21 0 16 -35
-6 -44 l-23 -8 22 -12 c12 -7 20 -16 17 -21 -3 -5 9 -19 27 -32 l33 -23 -30
-6 c-17 -3 -36 -1 -42 4 -9 6 -13 6 -13 -2 0 -11 -71 -8 -90 4 -5 3 -10 -1
-13 -7 -3 -10 -16 -7 -47 10 -23 13 -40 20 -36 14 3 -5 -9 -16 -27 -23 -45
-18 -64 -49 -30 -49 9 0 14 -3 10 -6 -3 -3 3 -14 14 -25 29 -29 23 -37 -26
-35 -29 1 -45 6 -45 14 0 6 7 12 15 12 22 0 18 19 -11 57 -14 19 -24 36 -23
37 8 7 48 26 54 26 3 0 3 -4 0 -10 -3 -5 -1 -10 4 -10 9 0 16 41 13 71 -1 3 6
6 14 6 8 0 14 -4 14 -9 0 -4 5 -8 10 -8 7 0 7 6 0 19 -8 16 -5 21 20 33 17 7
30 17 30 23 0 5 4 4 9 -3 4 -8 28 -16 52 -19 24 -3 50 -10 57 -16 9 -7 11 -6
6 7 -3 9 -1 16 6 16 6 0 9 4 6 9 -3 5 -15 7 -25 4 -10 -3 -22 0 -25 6 -7 11
40 13 59 2z m389 -137 c8 -21 8 -21 -7 -21 -7 0 -13 9 -13 19 0 22 12 24 20 2z
m66 -43 c0 7 9 2 20 -11 19 -22 20 -24 3 -34 -9 -5 -27 -10 -39 -12 -12 -1
-36 -5 -52 -9 -18 -3 -33 -2 -37 4 -9 16 -25 13 -19 -3 3 -8 -1 -13 -10 -13
-8 1 -14 -2 -13 -8 1 -5 11 -9 22 -7 10 1 26 0 33 -3 12 -4 12 -8 2 -21 -7 -8
-19 -13 -27 -10 -7 3 -13 -1 -13 -8 0 -20 -23 -35 -58 -38 -21 -1 -31 -7 -28
-15 3 -7 -1 -10 -9 -7 -22 9 -27 36 -9 55 18 20 40 26 29 9 -3 -5 -1 -10 6
-10 8 0 10 15 7 50 -3 29 -1 53 5 57 6 4 8 0 4 -11 -10 -26 22 -32 39 -7 12
16 26 21 61 21 43 0 45 1 40 25 -4 25 -4 25 19 10 16 -10 24 -12 24 -4z m-608
-23 c-5 -20 -17 -24 -27 -8 -8 13 1 27 18 27 9 0 12 -7 9 -19z m233 -7 c-11
-19 15 -22 46 -6 17 9 37 14 45 11 20 -8 17 -36 -3 -37 -13 -1 -10 -4 7 -10
20 -7 18 -8 -10 -3 -19 3 -45 7 -57 9 -21 3 -53 27 -53 39 0 3 7 6 16 6 8 0
13 -4 9 -9z m-397 -64 c6 -7 10 -23 9 -34 -1 -18 -6 -21 -32 -16 -55 11 -72
37 -32 53 31 12 43 12 55 -3z m1315 -32 c29 -30 43 -80 33 -120 -7 -26 8 -65
24 -65 5 0 13 12 16 26 7 26 8 26 69 21 34 -3 81 -14 104 -23 39 -15 43 -15
60 0 10 9 36 20 57 23 22 3 50 14 63 24 31 24 87 35 105 20 19 -16 5 -59 -28
-91 l-24 -21 -15 21 c-15 22 -16 22 -86 -49 -63 -62 -71 -68 -71 -46 0 27 -26
35 -32 10 -3 -14 -5 -14 -25 0 -13 9 -23 25 -23 36 0 29 -28 35 -77 17 l-44
-16 -69 42 c-48 28 -75 51 -86 74 -17 37 -26 120 -13 128 4 2 5 12 2 20 -5 13
-3 14 13 6 11 -6 32 -22 47 -37z m-843 13 c0 -5 5 -6 10 -3 6 4 18 4 27 1 13
-5 12 -9 -7 -26 -28 -24 -24 -24 -60 -5 -38 20 -38 40 0 41 17 1 30 -3 30 -8z
m-40 -48 c0 -5 -4 -10 -10 -10 -5 0 -10 5 -10 10 0 6 5 10 10 10 6 0 10 -4 10
-10z m260 -118 c-42 -2 -57 1 -72 16 -19 19 -18 19 53 3 l71 -16 -52 -3z m635
-108 c17 -4 46 -20 65 -37 21 -19 36 -25 38 -18 3 9 7 9 18 0 16 -13 19 -69 4
-69 -5 0 -10 6 -10 14 0 17 -23 27 -40 16 -7 -4 -46 -6 -86 -4 -58 3 -74 1
-74 -10 0 -8 -7 -16 -15 -20 -8 -3 -15 -1 -15 4 0 6 -5 10 -11 10 -5 0 -7 -4
-4 -10 3 -5 2 -10 -3 -10 -6 0 -12 7 -16 15 -3 9 -21 25 -40 36 -25 15 -33 25
-29 37 5 13 4 15 -8 7 -10 -7 -10 -5 1 5 9 8 16 20 16 25 -2 21 138 27 209 9z"/>
<path d="M830 1576 c0 -8 5 -18 10 -21 6 -3 10 1 10 9 0 8 -4 18 -10 21 -5 3
-10 -1 -10 -9z"/>
<path d="M1315 1670 c-3 -5 -2 -10 4 -10 5 0 13 5 16 10 3 6 2 10 -4 10 -5 0
-13 -4 -16 -10z"/>
<path d="M1194 1663 c15 -4 16 -7 5 -14 -10 -6 -6 -9 15 -9 28 0 29 1 10 15
-10 8 -26 14 -34 14 -9 -1 -8 -3 4 -6z"/>
<path d="M1257 1643 c-10 -21 0 -48 18 -51 17 -3 18 -1 5 8 -12 10 -11 11 7 7
13 -3 25 -2 28 3 7 12 -23 33 -36 24 -8 -4 -9 -3 -5 4 4 7 3 12 -3 12 -5 0
-12 -3 -14 -7z"/>
<path d="M1305 2750 c-3 -6 1 -7 9 -4 18 7 21 14 7 14 -6 0 -13 -4 -16 -10z"/>
<path d="M2168 2733 c-10 -2 -18 -9 -18 -14 0 -15 43 -7 48 9 4 12 0 13 -30 5z"/>
<path d="M1654 2678 l-19 -23 23 19 c21 18 27 26 19 26 -2 0 -12 -10 -23 -22z"/>
<path d="M2834 2661 c11 -11 23 -21 28 -21 14 0 -1 19 -25 31 -22 12 -22 12
-3 -10z"/>
<path d="M2165 2639 c-6 -9 -17 -18 -25 -21 -12 -5 -12 -7 3 -13 23 -9 40 7
35 31 -3 17 -5 17 -13 3z"/>
<path d="M2789 2626 c6 -8 23 -16 37 -19 24 -4 24 -3 8 14 -21 23 -63 27 -45
5z"/>
<path d="M2060 2605 c-17 -10 -20 -14 -9 -15 9 0 22 7 29 15 15 18 12 18 -20
0z"/>
<path d="M1990 2520 c-9 -6 -10 -10 -3 -10 6 0 15 5 18 10 8 12 4 12 -15 0z"/>
<path d="M2250 2511 c0 -11 -7 -24 -16 -29 -23 -13 -2 -24 30 -16 35 8 39 30
10 48 -23 16 -24 15 -24 -3z"/>
<path d="M2980 2461 c5 -11 15 -23 21 -27 6 -3 3 5 -6 20 -20 30 -30 35 -15 7z"/>
<path d="M2023 2426 c-42 -21 -55 -36 -30 -36 18 0 77 38 77 50 0 5 -1 9 -2 9
-2 -1 -22 -11 -45 -23z"/>
<path d="M2863 2385 c28 -25 47 -32 47 -17 0 9 -20 39 -20 30 0 -4 -12 -3 -27
2 l-28 10 28 -25z"/>
<path d="M2940 2397 c0 -17 31 -67 42 -67 7 0 5 7 -4 18 -8 9 -20 26 -26 37
-6 11 -12 16 -12 12z"/>
<path d="M1681 2357 c-13 -21 -12 -21 5 -5 10 10 16 20 13 22 -3 3 -11 -5 -18
-17z"/>
<path d="M3001 2324 c0 -11 3 -14 6 -6 3 7 2 16 -1 19 -3 4 -6 -2 -5 -13z"/>
<path d="M2101 2318 c0 -9 -4 -25 -7 -35 -5 -14 -4 -15 5 -7 7 7 11 22 8 35
-2 13 -5 16 -6 7z"/>
<path d="M2260 2297 c0 -7 -14 -21 -32 -32 -40 -23 -21 -32 21 -10 29 15 44
55 21 55 -5 0 -10 -6 -10 -13z"/>
<path d="M2010 2272 c0 -6 -8 -13 -17 -15 -16 -4 -16 -5 -1 -6 18 -1 34 16 24
26 -3 4 -6 1 -6 -5z"/>
<path d="M2977 2225 c-4 -8 -2 -17 3 -20 6 -4 10 3 10 14 0 25 -6 27 -13 6z"/>
<path d="M638 1993 c6 -2 18 -2 25 0 6 3 1 5 -13 5 -14 0 -19 -2 -12 -5z"/>
<path d="M3126 1484 c-5 -14 -4 -15 9 -4 17 14 19 20 6 20 -5 0 -12 -7 -15
-16z"/>
<path d="M509 1385 c48 -28 51 -29 51 -16 0 10 -62 41 -82 41 -7 0 7 -11 31
-25z"/>
<path d="M3167 1366 c-5 -15 -6 -31 -3 -34 8 -8 18 25 14 45 -3 13 -6 10 -11
-11z"/>
<path d="M596 1341 c28 -29 79 -38 88 -15 9 23 7 24 -55 31 l-54 5 21 -21z"/>
<path d="M708 1263 c-25 -29 -38 -60 -38 -89 l0 -28 31 30 c29 28 31 28 44 11
7 -11 16 -35 20 -56 9 -52 19 -65 47 -58 16 4 24 14 25 29 1 13 16 35 33 49
l30 26 -20 18 c-15 13 -41 20 -87 23 -63 4 -65 5 -42 19 24 14 23 14 -10 9
-29 -5 -32 -4 -21 9 18 22 6 29 -12 8z"/>
<path d="M3080 1194 c0 -10 3 -29 6 -42 5 -18 9 -20 20 -11 19 16 17 33 -6 54
-19 17 -20 17 -20 -1z"/>
<path d="M1825 1050 c-8 -13 15 -13 35 0 12 8 11 10 -7 10 -12 0 -25 -4 -28
-10z"/>
<path d="M1780 840 c-12 -8 -11 -10 7 -10 12 0 25 5 28 10 8 13 -15 13 -35 0z"/>
</g>
</svg>
