<?xml version="1.0" encoding="UTF-8"?>
<svg version="1.1" xmlns="http://www.w3.org/2000/svg" width="980" height="906">
<path d="M0 0 C2.24395814 0.0116899 4.48788339 0.01822147 6.73186493 0.02360535 C100.47525119 0.28623537 194.31336967 21.66004163 272.14891815 76.38652039 C273.45712067 77.2842262 274.7657485 78.1813124 276.0746994 79.07792664 C285.55045841 85.61655801 294.55810217 92.58642782 303.40624237 99.94804382 C304.92128475 101.19862237 306.45720803 102.42382018 307.9965744 103.64433289 C323.18328507 115.6929148 337.5772546 129.63175358 350.14891815 144.38652039 C351.0398744 145.40299715 351.93189154 146.41854457 352.8246994 147.43339539 C390.77010184 190.78523368 418.04063871 243.53509123 431.52391815 299.51152039 C431.75055145 300.4254657 431.97718475 301.33941101 432.21068573 302.28105164 C437.17804112 324.19047023 437.78057485 346.97133304 438.71141815 369.32402039 C438.87903775 373.31620498 439.05081934 377.30810945 439.23117828 381.29974365 C439.341926 383.75258546 439.44598746 386.20574265 439.54187775 388.65921021 C439.67869439 401.35209481 439.67869439 401.35209481 444.6528244 412.48027039 C445.66216034 413.27433289 446.67149628 414.06839539 447.71141815 414.88652039 C448.81024103 415.80234289 449.90393968 416.72434535 450.99266815 417.65214539 C451.53149628 418.10653992 452.0703244 418.56093445 452.62548065 419.02909851 C456.68244916 422.64396148 459.8774394 427.07513859 463.14891815 431.38652039 C463.57527557 431.94323425 464.001633 432.49994812 464.44091034 433.0735321 C474.99568846 446.90720638 484.52598999 460.81465621 490.14891815 477.38652039 C490.48794159 478.3210907 490.82696503 479.25566101 491.1762619 480.21855164 C494.84143595 492.02480352 495.60013653 508.72846938 490.41454315 520.14042664 C488.19898358 524.07236106 485.87252867 527.78476845 483.14891815 531.38652039 C482.70934784 531.9910907 482.26977753 532.59566101 481.8168869 533.21855164 C476.88399523 539.51616262 470.090537 544.23311828 463.11539459 548.04380798 C457.12643263 551.44514951 453.58762388 554.17370387 451.29857635 560.79570007 C450.63121593 563.28680887 450.01722012 565.79266225 449.4496994 568.30839539 C449.11656008 569.65895874 448.7805802 571.00882423 448.44193268 572.35801697 C447.74703003 575.17234342 447.0866356 577.99195945 446.45043182 580.82011414 C445.63793201 584.41943331 444.74224529 587.99161509 443.81952381 591.56405258 C443.1118106 594.34292655 442.44967166 597.13120379 441.80024529 599.92421722 C441.33686455 601.88199773 440.83641389 603.8308874 440.3350296 605.77928162 C438.82982099 612.75414068 438.7381194 616.77327962 442.38109589 623.04936218 C443.61417639 624.84433524 444.8676291 626.6256359 446.14891815 628.38652039 C456.41046746 646.15507338 459.98091718 664.9538593 455.1215744 685.04667664 C452.57806091 693.78042778 448.83635644 701.35536295 443.79735565 708.91386414 C439.48192457 718.00490259 438.62738428 728.44336032 437.33641815 738.32402039 C431.8344187 777.17837401 415.22580042 812.14348923 389.14891815 841.38652039 C388.68985077 841.90730164 388.23078339 842.42808289 387.75780487 842.96464539 C369.5531589 863.57319732 347.86722768 878.54271994 323.20800018 890.38505554 C321.11050147 891.40520491 319.03403804 892.46113286 316.9575119 893.52323914 C282.36486391 910.93725234 239.48358179 906.54061004 201.83220768 906.5319041 C196.2531542 906.53169783 190.67410571 906.53724026 185.09505463 906.54196167 C174.19353308 906.5502205 163.29201694 906.55301435 152.39049253 906.55357405 C143.51551557 906.55405153 134.64054037 906.5561178 125.76556396 906.55927467 C104.62072375 906.5666413 83.4758848 906.57280089 62.33104324 906.57227612 C61.65685405 906.57226054 60.98266486 906.57224496 60.28804569 906.57222891 C56.87210641 906.57214582 53.45616714 906.57204678 50.04022786 906.5719442 C49.02286956 906.57191428 49.02286956 906.57191428 47.98495857 906.57188376 C46.61339686 906.57184332 45.24183514 906.57180152 43.87027343 906.57175837 C22.55820025 906.5711464 1.24614302 906.57864261 -20.0659256 906.59233093 C-44.09287229 906.60775716 -68.11980577 906.61628059 -92.14675879 906.61536771 C-104.83712983 906.6150376 -117.52748287 906.61770208 -130.21784973 906.62854576 C-141.0265053 906.63772341 -151.83513473 906.63976722 -162.64379254 906.63303634 C-168.14096082 906.62980719 -173.63807917 906.62958094 -179.13524246 906.63838959 C-199.14597216 906.66841493 -219.10909999 906.58476396 -239.09272003 905.44946289 C-239.83348897 905.40739581 -240.5742579 905.36532872 -241.33747438 905.32198688 C-287.79693295 902.60461537 -332.30441088 878.37563523 -363.35108185 843.63652039 C-364.52652625 842.22712831 -365.69181904 840.80925202 -366.85108185 839.38652039 C-367.75196278 838.32128026 -368.65302073 837.25618983 -369.55420685 836.19120789 C-393.99435246 806.90846982 -408.80782352 771.23574366 -413.33252716 733.51933289 C-414.76284224 722.15500715 -417.52266451 711.90659189 -423.35108185 702.01152039 C-432.31093095 685.70258157 -434.68303294 667.28227658 -430.85108185 648.94902039 C-427.40704019 637.8371124 -421.59611278 627.05098155 -413.85108185 618.38652039 C-412.5343045 616.90925476 -412.5343045 616.90925476 -411.1909256 615.40214539 C-408.76874054 612.70747513 -406.31714717 610.04113799 -403.85108185 607.38652039 C-405.42333099 603.85309732 -407.5773591 601.09540809 -409.97608185 598.07402039 C-419.40556862 585.76628044 -424.96417239 572.39462165 -428.9018631 557.43730164 C-429.40266388 555.55591492 -429.40266388 555.55591492 -429.91358185 553.63652039 C-430.19330841 552.50730164 -430.47303497 551.37808289 -430.7612381 550.21464539 C-432.01952844 546.94940449 -432.95842853 546.24169194 -435.85108185 544.38652039 C-438.04885409 543.47417675 -438.04885409 543.47417675 -440.41358185 542.80839539 C-441.28748566 542.53817566 -442.16138947 542.26795593 -443.06177521 541.98954773 C-444.44248199 541.56729919 -444.44248199 541.56729919 -445.85108185 541.13652039 C-454.27010888 538.44709897 -461.56315064 535.47944016 -468.85108185 530.38652039 C-469.45823029 529.96757507 -470.06537872 529.54862976 -470.6909256 529.11698914 C-478.93894418 522.84177907 -484.85315314 512.48200656 -486.85108185 502.38652039 C-489.70206546 471.87286794 -476.5736137 445.85562251 -457.70264435 422.76542664 C-447.65192489 410.73859821 -436.63210139 400.07594223 -424.35108185 390.32402039 C-423.75118439 389.8462616 -423.15128693 389.36850281 -422.53321075 388.87626648 C-419.98340356 386.8859781 -417.944258 385.4175791 -414.85108185 384.38652039 C-414.85978302 383.62283142 -414.86848419 382.85914246 -414.87744904 382.0723114 C-415.38927068 301.10090797 -389.5113268 222.13023608 -337.85108185 159.38652039 C-337.40023224 158.83802429 -336.94938263 158.2895282 -336.48487091 157.72441101 C-321.76376481 139.90027545 -305.85688341 121.50128305 -287.4331131 107.43339539 C-285.07492164 105.56396676 -282.86135329 103.61315395 -280.6284256 101.59745789 C-276.12430041 97.57069852 -271.44449791 93.86962074 -266.60108185 90.26152039 C-265.7390213 89.6190033 -264.87696075 88.97648621 -263.98877716 88.3144989 C-247.00335345 75.76893594 -229.22461473 64.77171023 -210.85108185 54.38652039 C-210.16417267 53.99271179 -209.47726349 53.5989032 -208.76953888 53.19316101 C-188.61316732 41.66905692 -166.67909206 33.14887733 -144.85108185 25.38652039 C-144.02108673 25.08439636 -143.19109161 24.78227234 -142.33594513 24.47099304 C-119.49140877 16.18275726 -95.61364765 10.37859402 -71.72608185 6.01152039 C-70.49792755 5.78520935 -69.26977325 5.55889832 -68.00440216 5.32572937 C-63.96039561 4.61964561 -59.91171402 3.98783844 -55.85108185 3.38652039 C-54.99390564 3.25521729 -54.13672943 3.12391418 -53.25357819 2.9886322 C-35.49854631 0.33203927 -17.90678785 -0.10062065 0 0 Z M-45.85108185 40.38652039 C-46.5492099 40.48362305 -47.24733795 40.58072571 -47.9666214 40.68077087 C-123.24261655 51.24358129 -196.74015754 78.67096552 -255.85108185 127.38652039 C-257.09631622 128.3726532 -257.09631622 128.3726532 -258.36670685 129.37870789 C-273.98093661 141.84269831 -289.28680053 155.9857172 -301.69483185 171.67558289 C-303.90714532 174.45700598 -306.21716647 177.13328892 -308.53858185 179.82402039 C-357.92646484 239.2426207 -375.85108185 312.57264103 -375.85108185 388.38652039 C-119.44108185 388.38652039 136.96891815 388.38652039 401.14891815 388.38652039 C401.31158624 366.89770551 401.31158624 366.89770551 399.89891815 345.63652039 C399.69649506 343.69905945 399.69649506 343.69905945 399.4899826 341.72245789 C393.07769267 283.01276647 371.03932035 227.6259446 334.14891815 181.38652039 C333.34583221 180.36945007 332.54274628 179.35237976 331.7153244 178.30448914 C323.01695566 167.46641472 313.42372458 157.55818143 303.64891815 147.69902039 C302.78299042 146.82004089 301.91706268 145.9410614 301.02489471 145.03544617 C295.0466619 139.04933838 288.76391323 133.65337173 282.14891815 128.38652039 C280.94044665 127.38591696 279.73431115 126.38247754 278.53173065 125.37480164 C263.83919829 113.23391977 247.71727938 102.78540922 231.14891815 93.38652039 C230.31118866 92.90892273 229.47345917 92.43132507 228.61034393 91.93925476 C181.15786134 65.07209909 129.38942442 48.97184953 75.58641815 41.07402039 C74.59190643 40.926745 73.59739471 40.7794696 72.57274628 40.62773132 C52.49461479 37.88513307 32.33235946 37.002055 12.08641815 37.07402039 C10.98095642 37.07617554 9.87549469 37.07833069 8.73653412 37.08055115 C-9.63490521 37.13766529 -27.63855228 37.83772805 -45.85108185 40.38652039 Z M-417.85108185 434.38652039 C-418.80904595 435.33005865 -419.77922301 436.26162113 -420.7690506 437.17167664 C-425.66637159 442.08585588 -430.3993079 447.06462698 -434.85108185 452.38652039 C-435.52139435 453.16769226 -436.19170685 453.94886414 -436.88233185 454.75370789 C-444.92586336 464.3879378 -451.69665051 476.17598691 -450.78858185 489.19902039 C-449.87218783 494.63826232 -447.58994062 498.59651871 -443.72608185 502.57402039 C-428.36203222 512.26005167 -408.95078925 510.74179669 -391.89942169 506.88261414 C-371.25900639 501.88364824 -351.99561696 492.68843513 -332.9174881 483.57841492 C-329.23959515 481.82349646 -325.55091042 480.09476471 -321.85108185 478.38652039 C-320.65708771 477.83472107 -320.65708771 477.83472107 -319.43897247 477.27177429 C-313.71906087 474.85930417 -308.31718494 474.19617664 -302.41553497 476.22294617 C-299.765268 477.38616459 -297.18604823 478.64731767 -294.60108185 479.94902039 C-269.071519 492.13304373 -245.94206953 495.86830539 -217.85108185 496.38652039 C-217.1226004 496.40311707 -216.39411896 496.41971375 -215.64356232 496.43681335 C-211.70781652 496.52198445 -207.7863429 496.48437012 -203.85108185 496.38652039 C-203.03816681 496.36863464 -202.22525177 496.3507489 -201.38770294 496.33232117 C-172.03988225 495.61677544 -147.99177738 489.9771708 -121.12500763 478.33866882 C-116.02709135 476.20404637 -111.27300534 475.43331925 -105.9018631 476.92948914 C-100.33573346 479.33432811 -96.62769621 483.42685619 -92.4721756 487.73417664 C-74.16563864 506.25897335 -50.38835467 515.34234317 -24.50928497 515.57719421 C1.31727166 515.54561547 30.42930296 513.30517305 50.09325409 494.7117157 C57.39332335 487.39182276 61.81027593 478.39799002 66.37548065 469.23417664 C68.65599424 465.57229468 71.30035543 463.31080174 75.14891815 461.38652039 C84.51431354 460.46952341 91.47660635 462.43352874 99.947258 466.18241882 C146.68452131 486.80492621 206.36685459 486.12350573 253.83641815 468.13652039 C254.72087616 467.78307556 255.60533417 467.42963074 256.51659393 467.06547546 C263.61905037 464.29475173 271.74241223 461.66665898 279.14891815 464.76152039 C282.86108803 466.44938872 285.51727272 468.45856843 288.46141815 471.26152039 C319.72348749 500.9629248 372.67837735 525.36622351 416.1918869 524.74198914 C421.51152183 524.50442489 425.65644179 523.08015029 430.4028244 520.68339539 C433.43802177 519.24998781 436.31158925 518.53852851 439.58641815 517.82402039 C446.16702562 516.26455351 449.23364738 513.96131009 452.89891815 508.32402039 C457.0095 501.54676361 457.23242728 494.29336745 455.5356369 486.60917664 C449.88844557 469.66760265 437.0096827 454.78810602 423.56061554 443.35887146 C421.21403011 441.36401288 419.0563794 439.27594626 416.91605377 437.06285095 C404.97294705 425.53449675 392.17111111 425.58088362 376.44234467 425.85727882 C375.68406561 425.87115017 374.92578655 425.88502152 374.14452934 425.89931321 C370.05066501 425.95865947 365.95696644 425.93913323 361.86278534 425.93002319 C354.5250855 425.92385664 347.18880979 425.96506192 339.85146332 426.03541565 C327.57059514 426.15181447 315.2903728 426.17049627 303.00902557 426.17973328 C298.5360174 426.18423607 294.06301068 426.1895736 289.59000397 426.19534302 C287.87713002 426.19751386 287.87713002 426.19751386 286.12965256 426.19972855 C277.65513445 426.21192794 269.18071355 426.23794756 260.70624542 426.26898193 C218.03282636 426.42132745 175.36213153 426.31963157 132.68885174 426.15840399 C128.17820061 426.14139843 123.66754856 426.12463908 119.15689659 426.10785675 C117.33873154 426.10108343 115.5205665 426.09430916 113.70240146 426.08753395 C111.87621899 426.08073043 110.05003653 426.07392691 108.22385406 426.06712341 C107.31687663 426.06374411 106.4098992 426.0603648 105.4754376 426.0568831 C104.56652383 426.05349671 103.65761005 426.05011033 102.72115344 426.04662132 C101.3549611 426.04153109 101.3549611 426.04153109 99.96116892 426.03633803 C98.11575317 426.02946559 96.27033741 426.02259823 94.42492163 426.01573592 C89.77963099 425.99846102 85.13434062 425.9811208 80.48905075 425.96364307 C52.1778784 425.85733675 23.86671038 425.77456227 -4.44458771 425.71025085 C-5.38218142 425.70810987 -6.31977513 425.70596888 -7.28578077 425.70376301 C-23.36093677 425.66706657 -39.43609562 425.63166233 -55.51125598 425.5969286 C-68.6399964 425.56853661 -81.76873437 425.53924916 -94.89746857 425.50810242 C-95.81749185 425.50592311 -96.73751513 425.50374381 -97.68541791 425.50149846 C-127.95322775 425.42927317 -158.22063224 425.30950712 -188.48815699 425.16099868 C-192.69586751 425.140357 -196.90357849 425.11980985 -201.11128998 425.09936523 C-201.93665273 425.09535275 -202.76201547 425.09134027 -203.61238921 425.08720619 C-215.77100203 425.02844688 -227.92962278 424.97911292 -240.08831024 424.93869019 C-240.86816714 424.93609403 -241.64802403 424.93349788 -242.45151296 424.93082305 C-250.17389401 424.90530558 -257.89627848 424.88124935 -265.61867009 424.85915447 C-269.37661249 424.84836138 -273.13455367 424.83718605 -276.8924942 424.82575989 C-277.62905482 424.8235267 -278.36561544 424.82129351 -279.12449608 424.81899265 C-290.85000843 424.78252907 -302.5751442 424.71525119 -314.30043348 424.63547201 C-325.88301583 424.55724421 -337.46524206 424.51152835 -349.04810601 424.49815077 C-355.24155206 424.48998844 -361.4340218 424.46723218 -367.62717628 424.40453911 C-373.24852492 424.34783661 -378.8683956 424.33240743 -384.48998797 424.35029328 C-386.51284433 424.34939509 -388.53576434 424.33325147 -390.55835092 424.3002032 C-402.50688241 424.11446901 -409.89702024 424.42291117 -417.85108185 434.38652039 Z M88.72460175 506.96611023 C88.00611053 507.75195496 87.28761932 508.53779968 86.54735565 509.34745789 C85.32749969 510.63776917 85.32749969 510.63776917 84.08300018 511.95414734 C83.23850311 512.88058044 82.39400604 513.80701355 81.52391815 514.76152039 C55.02732815 542.49629136 20.37087042 551.44001501 -17.02295685 552.57402039 C-50.96933571 553.19766451 -81.84067407 544.29642516 -108.71240997 523.2844696 C-109.65697052 522.54607849 -109.65697052 522.54607849 -110.6206131 521.79277039 C-111.44976227 521.13244812 -111.44976227 521.13244812 -112.29566193 520.45878601 C-113.98630107 519.18695131 -113.98630107 519.18695131 -116.85108185 518.38652039 C-119.16090198 518.89533394 -121.44697308 519.51417252 -123.7143631 520.18730164 C-124.38396561 520.38373764 -125.05356812 520.58017365 -125.74346161 520.78256226 C-127.88597464 521.41334016 -130.02467818 522.05612266 -132.16358185 522.69902039 C-133.59239219 523.12101071 -135.02142656 523.54224328 -136.45069122 523.96269226 C-142.28081272 525.68505589 -148.09247557 527.43569519 -153.85108185 529.38652039 C-149.64890256 533.99273491 -144.90290718 537.20588382 -139.68701935 540.58573914 C-138.79002319 541.17399475 -137.89302704 541.76225037 -136.96884918 542.36833191 C-134.05812607 544.27568926 -131.1421476 546.17484353 -128.22608185 548.07402039 C-125.21583768 550.04356284 -122.20690671 552.01510076 -119.19800568 553.98669434 C-117.20416981 555.29289938 -115.20986761 556.59839288 -113.21509552 557.90316772 C-105.86062857 562.71536358 -98.54053931 567.57632443 -91.24222565 572.47312927 C-83.55710109 577.62836633 -75.85111036 582.71942247 -67.96900177 587.56840515 C-61.70803721 591.43353009 -55.56457759 595.47436771 -49.41358185 599.51152039 C-37.65730924 607.22566822 -25.83325234 614.82880343 -13.97754669 622.38945007 C-10.80313338 624.4171481 -7.63314431 626.45159607 -4.4643631 628.48808289 C5.55892007 634.92735264 15.59839366 641.33886423 25.71141815 647.63652039 C26.54963104 648.16141052 27.38784393 648.68630066 28.25145721 649.22709656 C33.10449174 652.2333531 38.00391448 654.91126089 43.14891815 657.38652039 C50.23749834 648.8313374 57.12461439 640.22856559 63.50048065 631.12870789 C65.99592108 627.57447951 68.57957112 624.08983928 71.17137909 620.60551453 C77.12344973 612.60366505 82.86940884 604.49607526 88.46019745 596.23808289 C91.80145921 591.31572932 95.22913466 586.47668946 98.77391815 581.69902039 C102.91247943 576.1187289 106.89823041 570.45300221 110.8156662 564.71562195 C114.53635324 559.26777693 118.30136063 553.85233088 122.08641815 548.44902039 C122.67173309 547.61282166 123.25704803 546.77662292 123.86009979 545.91508484 C126.77249473 541.75928575 129.69560507 537.61155256 132.6371994 533.47636414 C133.18706512 532.70220154 133.73693085 531.92803894 134.30345917 531.13041687 C135.33920376 529.67371779 136.37731718 528.21869902 137.41820526 526.76567078 C137.88105927 526.11461365 138.34391327 525.46355652 138.82079315 524.79277039 C139.22394745 524.22880554 139.62710175 523.6648407 140.04247284 523.08378601 C141.23937084 521.24776772 142.1829048 519.35199112 143.14891815 517.38652039 C136.86957316 515.83348223 130.5889273 514.28579188 124.30736542 512.741745 C122.17229914 512.21627238 120.03752934 511.68959356 117.90306854 511.16166687 C114.82824588 510.40138096 111.75236968 509.64549391 108.6762619 508.89042664 C107.72807083 508.65497635 106.77987976 508.41952606 105.80295563 508.17694092 C103.25675111 507.55438348 100.70565223 506.96405054 98.14891815 506.38652039 C96.23308929 505.93901428 96.23308929 505.93901428 94.27855682 505.48246765 C91.10412351 505.08686003 91.10412351 505.08686003 88.72460175 506.96611023 Z M254.21141815 507.51152039 C245.89971961 510.11721703 237.4425696 511.86761057 228.89891815 513.51152039 C228.22852509 513.64166534 227.55813202 513.7718103 226.86742401 513.90589905 C220.18842543 515.19462593 213.52265267 516.39899547 206.7621994 517.18730164 C205.81312714 517.29993347 204.86405487 517.41256531 203.88622284 517.52861023 C202.17493937 517.7176074 200.4604617 517.88063186 198.74364471 518.01005554 C191.2422091 518.81412063 187.17770639 522.79353339 182.43724823 528.41703796 C180.73930489 530.59779681 179.12324226 532.82002012 177.52391815 535.07402039 C176.92837128 535.89781189 176.3328244 536.72160339 175.71923065 537.57035828 C173.84937848 540.16669319 171.99631965 542.77417157 170.14891815 545.38652039 C169.56271698 546.21474304 168.97651581 547.0429657 168.37255096 547.89628601 C164.86476557 552.86483167 161.38618886 557.85324016 157.91649628 562.84843445 C156.12119867 565.42632311 154.31633377 567.99724322 152.50829315 570.56620789 C147.07100362 578.29438339 141.65546231 586.03385128 136.39891815 593.88652039 C135.9925412 594.49149353 135.58616425 595.09646667 135.16747284 595.71977234 C131.36096006 601.12620988 131.36096006 601.12620988 130.14891815 607.38652039 C156.1158054 607.91436159 181.93053215 606.47322491 207.84501648 604.96397781 C211.37637201 604.75920356 214.90790033 604.55771717 218.43950653 604.35731506 C252.14308672 602.44444643 285.83738477 600.39138116 319.52391815 598.19902039 C320.4563522 598.1385125 321.38878624 598.07800461 322.34947586 598.01566315 C342.36700601 596.71581461 362.37636417 595.33261558 382.37548065 593.77323914 C383.59656588 593.67905669 383.59656588 593.67905669 384.84231949 593.58297157 C387.13308154 593.40550055 389.42350773 593.22423023 391.71385956 593.04154968 C393.00949829 592.93900375 394.30513702 592.83645782 395.64003754 592.73080444 C398.84643305 592.41619959 401.97980507 591.96034206 405.14891815 591.38652039 C405.94883997 588.63869736 406.73887054 585.8885974 407.52391815 583.13652039 C407.7456369 582.37855164 407.96735565 581.62058289 408.19579315 580.83964539 C410.01312194 574.42554377 411.15241044 567.97446528 412.14891815 561.38652039 C411.13805145 561.23094666 410.12718475 561.07537292 409.08568573 560.91508484 C358.87512865 553.14930843 315.59723371 537.73742044 273.16332245 508.68339539 C266.40697188 504.33365181 261.75155079 504.99550551 254.21141815 507.51152039 Z M-326.28858185 521.76152039 C-328.68442195 522.88471477 -331.08189504 524.00030195 -333.4878006 525.10136414 C-334.09749695 525.38135757 -334.7071933 525.66135101 -335.3353653 525.9498291 C-352.44897313 533.7101915 -370.63507078 538.51518212 -389.05469513 541.95683289 C-390.86263922 542.22367421 -390.86263922 542.22367421 -391.85108185 543.38652039 C-391.35590317 558.24188072 -383.50979416 574.11716743 -372.85108185 584.38652039 C-359.18728613 595.37696477 -337.29621562 594.55160002 -320.6206131 595.78886414 C-319.77514671 595.8521887 -318.92968033 595.91551327 -318.05859375 595.98075676 C-293.82385869 597.78125633 -269.55440717 599.00041203 -245.28668976 600.25730896 C-240.3868795 600.51217861 -235.48731185 600.77154579 -230.58774185 601.03098679 C-208.09666824 602.22134531 -185.60404608 603.38393894 -163.10578918 604.43101311 C-161.26803344 604.51665687 -159.43031841 604.60317991 -157.59265137 604.69070625 C-143.33739839 605.36645356 -129.12381936 605.65480493 -114.85108185 605.38652039 C-118.92461373 599.84082914 -123.65951343 596.52242646 -129.41358185 592.82402039 C-130.34178741 592.21687195 -131.26999298 591.60972351 -132.22632599 590.98417664 C-134.15479151 589.72455725 -136.08605383 588.4692098 -138.02002716 587.21806335 C-140.65459591 585.51363642 -143.28154757 583.79822678 -145.90576935 582.07792664 C-156.22433932 575.32522702 -166.62099454 568.69663401 -177.03076935 562.08573914 C-183.41538259 558.03029078 -189.79093862 553.96074073 -196.16358185 549.88652039 C-197.19507355 549.22805115 -198.22656525 548.56958191 -199.28931427 547.89115906 C-200.27520538 547.2605658 -201.2610965 546.62997253 -202.2768631 545.98027039 C-203.22899689 545.37570007 -204.18113068 544.77112976 -205.162117 544.14823914 C-206.86951883 543.02960725 -208.55087278 541.86930265 -210.19239044 540.65605164 C-215.92758177 536.45355172 -220.83789535 535.19157623 -227.85108185 534.38652039 C-228.90327911 534.24794617 -229.95547638 534.10937195 -231.03955841 533.96659851 C-233.31165247 533.66859725 -235.58473605 533.37806317 -237.85865021 533.09428406 C-257.95001839 530.55184528 -277.28174091 526.30881296 -296.42310333 519.65873718 C-308.32362845 515.62112083 -314.94399131 516.13329308 -326.28858185 521.76152039 Z M-386.85108185 641.38652039 C-394.61593321 650.78515269 -394.88534614 661.74329017 -393.85108185 673.38652039 C-391.64525416 684.7039204 -385.9704045 694.0381264 -376.51574135 700.6882782 C-369.00513918 704.73578293 -359.29265389 703.46696281 -351.04029083 703.38652039 C-348.81578796 703.39413966 -346.59129481 703.40526886 -344.3668251 703.41960812 C-338.30130478 703.44868183 -332.23682304 703.42838583 -326.1713388 703.39958835 C-319.69826391 703.3774685 -313.22534481 703.40122293 -306.75228119 703.4196167 C-295.68172338 703.44621613 -284.61145794 703.44166798 -273.54090118 703.41755676 C-262.0547633 703.39263755 -250.56880878 703.38407096 -239.08264923 703.39772034 C-238.01664655 703.39897498 -238.01664655 703.39897498 -236.92910846 703.40025497 C-233.33629539 703.40457528 -229.7434828 703.409202 -226.15067029 703.4139601 C-201.79343953 703.44576955 -177.43634154 703.44433653 -153.07910919 703.4172821 C-126.75599452 703.38805278 -100.43302456 703.39001907 -74.10990334 703.41586685 C-64.47813922 703.4253014 -54.84637374 703.43274394 -45.21460724 703.43925476 C-44.31808044 703.43986444 -43.42155364 703.44047411 -42.49785936 703.44110227 C-14.61558417 703.45923418 13.26667604 703.42917075 41.14891815 703.38652039 C37.88047317 700.74531751 34.61887719 698.31192614 31.07079315 696.05839539 C30.08796356 695.43199158 29.10513397 694.80558777 28.09252167 694.16020203 C26.51168793 693.15847961 26.51168793 693.15847961 24.89891815 692.13652039 C23.20998888 691.06071833 21.52106192 689.98491262 19.83228302 688.90887451 C18.08605433 687.79679439 16.33903868 686.6859608 14.59178925 685.57548523 C-4.65755637 673.33989087 -23.87205244 661.03920666 -42.85108185 648.38652039 C-44.83236894 648.00689786 -44.83236894 648.00689786 -47.03670692 647.93295479 C-48.3231624 647.85753053 -48.3231624 647.85753053 -49.63560688 647.78058255 C-50.57861334 647.73466343 -51.5216198 647.68874432 -52.49320221 647.64143372 C-53.49529311 647.5853774 -54.49738401 647.52932108 -55.5298413 647.47156608 C-58.90620193 647.28493209 -62.28311197 647.11143185 -65.66016388 646.93778992 C-68.07732121 646.80684833 -70.49443464 646.67509433 -72.91150665 646.54258728 C-78.13795597 646.25786022 -83.36467374 645.97874714 -88.59168625 645.7045784 C-96.21987421 645.30440109 -103.84745701 644.8935146 -111.47493409 644.4800341 C-123.94353479 643.80436338 -136.41254219 643.13652866 -148.88184357 642.47392273 C-160.83382201 641.83878314 -172.78567694 641.2014257 -184.73731232 640.55986023 C-185.46444381 640.52082935 -186.1915753 640.48179847 -186.94074108 640.44158484 C-194.96948352 640.0105401 -202.9981826 639.5786929 -211.02684593 639.14617729 C-211.74449476 639.10751909 -212.46214359 639.0688609 -213.20153936 639.02903124 C-218.98577366 638.7174381 -218.98577366 638.7174381 -221.84156226 638.56351207 C-230.76504213 638.08257449 -239.68868707 637.6049223 -248.61255682 637.13127363 C-253.80384195 636.8553564 -258.99501671 636.57739986 -264.18617034 636.29902053 C-266.72676356 636.16316812 -269.26739953 636.02811269 -271.808079 635.89388299 C-286.04289719 635.14076634 -300.26812044 634.312063 -314.48916264 633.33578725 C-316.74951138 633.18133525 -319.01000908 633.0293105 -321.27058637 632.87824285 C-322.00941544 632.82884643 -322.74824451 632.77945001 -323.50946233 632.72855673 C-324.99047386 632.62960684 -326.4714928 632.53076796 -327.95251926 632.43204185 C-332.23893407 632.14461935 -336.52367135 631.83995092 -340.80791396 631.52186888 C-342.81969952 631.37541217 -344.83186428 631.23764006 -346.84450841 631.1035378 C-349.28739814 630.94048382 -351.72944031 630.76384464 -354.17009044 630.57013392 C-367.05274741 629.7574137 -377.29078107 632.50909824 -386.85108185 641.38652039 Z M311.64588046 635.7108748 C306.25685122 636.04736166 300.86690391 636.36852153 295.47705841 636.69161987 C285.28802807 637.30459955 275.09983745 637.93049757 264.91190821 638.56148595 C253.48896965 639.26835268 242.06517291 639.9608143 230.64127243 640.65193331 C216.5968242 641.50174302 202.55251618 642.35377221 188.50888824 643.21704102 C187.52357925 643.27751037 186.53827026 643.33797973 185.52310342 643.40028149 C180.65725449 643.6991306 175.79154271 643.99996359 170.92605495 644.30463886 C161.5467524 644.88933636 152.1671643 645.446949 142.78267926 645.94254357 C138.14160529 646.18843555 133.50107784 646.4439149 128.86054623 646.69981325 C126.63075322 646.81990264 124.40069221 646.93512491 122.17038429 647.04523814 C119.08037976 647.19803042 115.99166755 647.36724892 112.90271759 647.53988647 C111.98596429 647.58075123 111.069211 647.62161598 110.1246773 647.66371906 C102.99364263 648.08814461 99.01359526 650.0657798 94.14891815 655.38652039 C89.34321235 660.85152136 85.36418951 666.79364481 81.3234787 672.83573914 C75.76067894 681.10167515 69.67126726 688.91415659 63.45482635 696.69511414 C62.28569792 698.20936386 61.21009508 699.794755 60.14891815 701.38652039 C61.94466637 703.18226861 64.64893243 702.55855306 67.07567596 702.59184265 C68.39488037 702.6117778 69.71408478 702.63171295 71.07326508 702.6522522 C72.58285429 702.66945128 74.09244721 702.68632789 75.60204315 702.70292664 C77.23362685 702.7238481 78.86520841 702.74493674 80.49678802 702.76617432 C85.1341385 702.82403792 89.77154705 702.87294739 94.4090271 702.91915131 C97.40418453 702.949073 100.39932242 702.980594 103.39446259 703.01219177 C150.81996921 703.50003276 198.24860156 703.49671359 245.67611551 703.50863379 C252.05347935 703.51027161 258.43084063 703.51322465 264.80820334 703.51733595 C276.09073712 703.52458113 287.37325339 703.52576795 298.65578842 703.52090263 C302.45501446 703.51940759 306.25423 703.5200135 310.05345535 703.52266121 C328.19389902 703.53364371 346.3309309 703.47327853 364.46737838 703.05917335 C366.08387644 703.02261378 367.70043362 702.98855908 369.31704354 702.95733476 C390.9381123 702.82659012 390.9381123 702.82659012 409.33641815 692.82402039 C417.64323812 684.09204822 419.51943461 673.66833429 419.4340744 662.03495789 C418.6246566 651.67884525 413.80675443 643.45456564 406.12548065 636.68339539 C401.03599914 633.34405179 395.71470092 633.08474707 389.79602814 633.10263062 C388.56910171 633.09631817 388.56910171 633.09631817 387.31738889 633.0898782 C384.60749878 633.08168969 381.898093 633.09124077 379.18822479 633.10404968 C377.76938718 633.10709423 377.76938718 633.10709423 376.32188618 633.11020029 C354.7154676 633.17477002 333.2033812 634.35308024 311.64588046 635.7108748 Z M-344.10425568 740.83210754 C-345.33821496 740.85152664 -346.57217425 740.87094573 -347.84352624 740.89095329 C-351.28947216 740.94674462 -354.73521605 741.00929558 -358.18099213 741.07466316 C-359.70228247 741.09912274 -359.70228247 741.09912274 -361.25430596 741.12407644 C-362.18788489 741.14360421 -363.12146382 741.16313198 -364.08333302 741.1832515 C-364.88862235 741.1984055 -365.69391169 741.2135595 -366.52360374 741.22917271 C-369.03325721 741.39883623 -371.39734418 741.8435198 -373.85108185 742.38652039 C-371.90795565 759.31947721 -364.97092558 775.56545427 -356.85108185 790.38652039 C-356.19468693 791.62342266 -355.53843583 792.86040127 -354.88233185 794.09745789 C-350.65261179 801.92307067 -345.72914099 808.72068012 -339.85108185 815.38652039 C-338.78760529 816.63175476 -338.78760529 816.63175476 -337.70264435 817.90214539 C-310.32574576 849.3312203 -273.70298721 865.69417544 -232.61563683 868.54143143 C-213.13438823 869.72764084 -193.59284673 869.72334188 -174.08296847 869.91148615 C-170.9608699 869.94169524 -167.83878503 869.97311394 -164.7166996 870.00465012 C-110.45145162 870.54500692 -56.18470801 870.53962204 -1.9174052 870.51598224 C8.53268495 870.51151573 18.98276374 870.51234662 29.4328537 870.51689148 C83.62750463 870.53969863 137.82221745 870.53292639 192.01503634 870.03089666 C194.98160725 870.00433163 197.94818749 869.98065065 200.9147892 869.95781326 C219.33756105 869.81187795 237.72196752 869.52090136 256.11595917 868.42607117 C256.81407648 868.38463163 257.51219379 868.3431921 258.23146617 868.30049682 C296.16973288 865.99251688 327.47193527 851.79212243 355.14891815 825.38652039 C355.85790253 824.75230164 356.5668869 824.11808289 357.29735565 823.46464539 C376.72461251 805.36994405 397.14289013 771.5311928 398.27391815 744.38652039 C398.21204315 743.39652039 398.21204315 743.39652039 398.14891815 742.38652039 C394.85054466 741.65660588 391.75680406 741.24677447 388.38116932 741.1832515 C387.44759039 741.16372373 386.51401146 741.14419596 385.55214226 741.12407644 C384.5379487 741.10777006 383.52375513 741.09146368 382.47882843 741.07466316 C380.86005493 741.04395446 380.86005493 741.04395446 379.20857894 741.01262538 C375.60649119 740.94673948 372.00433562 740.88879686 368.40209198 740.83210754 C367.14316623 740.81113601 365.88424049 740.79016448 364.58716547 740.76855744 C335.65702185 740.29274418 306.72703055 740.24169509 277.7935975 740.2548518 C270.06943235 740.2581528 262.3452715 740.25539825 254.62110654 740.25264835 C239.49869315 740.24745265 224.37628405 740.24781048 209.25387028 740.25072726 C196.01806995 740.25326688 182.78227117 740.2538885 169.54647064 740.25270462 C168.6603082 740.25262824 167.77414575 740.25255185 166.8611299 740.25247315 C163.2617537 740.25216169 159.66237749 740.25184328 156.06300129 740.25151339 C122.46220797 740.24847075 88.86141735 740.25120165 55.26062445 740.25661028 C25.56485893 740.26135405 -4.1309023 740.26092935 -33.82666779 740.25614929 C-67.37540979 740.25076677 -100.92414943 740.24868674 -134.47289181 740.25176156 C-138.06480598 740.25208216 -141.65672016 740.25239501 -145.24863434 740.25270462 C-146.13272222 740.2527837 -147.0168101 740.25286278 -147.92768852 740.25294425 C-161.13836985 740.25407029 -174.34904944 740.25277312 -187.55973053 740.25022507 C-202.61708227 740.24733488 -217.67442914 740.24814521 -232.73178029 740.25350581 C-240.38259725 740.25614151 -248.03340633 740.25733567 -255.68422318 740.25385666 C-285.16076449 740.24135299 -314.63138797 740.34114037 -344.10425568 740.83210754 Z " fill="#060606" transform="translate(486.85108184814453,-0.3865203857421875)"/>
<path d="M0 0 C5.12250892 2.83801084 8.53262632 6.96529973 10.8125 12.375 C11.62146385 17.99071419 11.33353772 22.98481101 8.15625 27.7734375 C4.43331962 32.21065103 0.53538208 35.91211946 -5.38671875 36.6484375 C-12.01123366 36.91882586 -16.10674975 35.66776352 -21.1875 31.375 C-25.27847125 27.06871447 -26.98212536 23.4629755 -27.5625 17.5625 C-27.40256497 12.84441664 -26.0036432 9.15846108 -23.1875 5.375 C-16.39595551 -0.92460163 -8.89372381 -4.05944591 0 0 Z " fill="#0F0F0F" transform="translate(822.1875,222.625)"/>
<path d="M0 0 C4.74786917 2.63977795 7.49205526 5.98562381 10.125 10.75 C11.78738701 17.09729586 11.22412627 21.8864618 8.0859375 27.55078125 C5.24305885 31.62324851 1.37877785 34.44701602 -3.1875 36.375 C-8.99946492 37.22504929 -14.31048847 36.7215593 -19.4296875 33.7578125 C-24.21631858 29.99232938 -26.32839309 25.2539025 -27.1875 19.3125 C-27.5100245 13.1181323 -25.4247713 9.16216965 -21.9375 4.125 C-15.72990429 -2.08259571 -7.93658831 -3.56549738 0 0 Z " fill="#0F0F0F" transform="translate(359.1875,185.625)"/>
<path d="M0 0 C4.34383217 3.53567735 7.38722072 7.62719462 9 13 C9.52548582 18.50884297 8.52552219 22.81859963 5.375 27.375 C1.59464231 31.78988581 -1.78697776 34.49495908 -7.609375 35.41015625 C-13.44189137 35.72433876 -17.5803755 34.93587669 -22.34375 31.5 C-26.09723606 28.1006164 -28.62829648 24.08940468 -29.23828125 19.01953125 C-29.45916991 12.45099994 -28.11792686 7.36565255 -23.57421875 2.4609375 C-16.17263293 -4.07999881 -8.68136541 -4.66221476 0 0 Z " fill="#0F0F0F" transform="translate(213,261)"/>
<path d="M0 0 C4.48280171 3.32744045 7.87746835 7.87873422 8.89453125 13.40625 C9.47141631 19.40585462 8.24011724 23.50625329 4.89453125 28.40625 C0.51913047 33.15326016 -4.08618562 35.44584767 -10.48046875 35.78125 C-16.18905078 35.62031153 -19.82225425 33.67400255 -23.8359375 29.6875 C-28.32695647 24.65243836 -29.52206597 20.78933513 -29.453125 14.04296875 C-28.72305215 8.50589941 -25.54979217 4.77835724 -21.60546875 1.03125 C-14.47244893 -3.60521288 -7.46164574 -4.12082999 0 0 Z " fill="#0F0F0F" transform="translate(602.10546875,186.59375)"/>
<path d="M0 0 C4.70708487 3.31635525 8.51831236 7.58349709 10.75 12.9375 C11.78652097 19.34946695 10.48339198 24.66005085 6.75 29.9375 C3.38576597 33.66083766 -0.30404931 35.98635564 -5.25 36.9375 C-11.62878914 37.02088286 -16.27826883 36.19898386 -21.25 31.9375 C-25.06215729 27.9135562 -27.20234638 24.18324071 -27.28515625 18.54296875 C-26.89441942 12.18634757 -25.46258137 8.03234278 -20.7578125 3.5 C-14.63891697 -1.85783887 -7.63831439 -2.49714124 0 0 Z " fill="#101010" transform="translate(359.25,278.0625)"/>
<path d="M0 0 C4.34048798 3.02068221 7.47521474 7.11878867 8.82421875 12.26953125 C9.4477767 18.60903708 8.48838252 23.00440977 4.82421875 28.26953125 C0.54307414 32.90255076 -3.7597084 35.03188474 -9.98828125 35.64453125 C-15.34239213 35.48289771 -19.79139298 33.47282674 -23.71875 29.84375 C-27.91818404 25.07782339 -29.68100344 20.7706412 -29.48828125 14.38671875 C-28.71488708 9.14697322 -26.18739864 4.8742445 -22.23828125 1.39453125 C-14.86154362 -3.72402139 -7.86778296 -4.3744255 0 0 Z " fill="#0F0F0F" transform="translate(750.17578125,149.73046875)"/>
<path d="M0 0 C5.53261043 2.39994234 8.80347557 6.25299938 11.84765625 11.3828125 C13.60965154 16.66879838 13.56270414 21.42393607 11.34765625 26.5078125 C8.41431129 31.83829958 3.57209299 35.47466692 -2.15234375 37.3828125 C-8.49798305 37.92057854 -12.88082751 37.06271463 -18.15234375 33.3828125 C-21.75032866 29.97611287 -24.77086995 26.03095036 -25.48828125 21.05078125 C-25.58564951 14.86789658 -24.8719547 11.37492193 -21.15234375 6.3828125 C-14.94348404 0.14075033 -8.64977492 -2.48033473 0 0 Z " fill="#0F0F0F" transform="translate(598.15234375,110.6171875)"/>
<path d="M0 0 C5.83077921 3.28855947 8.97451805 8.80208887 10.875 15.0625 C10.76698202 21.11150713 9.30434844 25.80288389 5.375 30.4375 C-0.06059093 34.94506321 -3.63094995 36.93681173 -10.7734375 36.84375 C-16.03486165 36.23076855 -19.91387747 33.86963892 -23.5625 30.125 C-27.25625616 24.30023066 -27.85885358 19.38609377 -27.1875 12.5625 C-25.3571209 6.72816661 -21.01407569 3.09485278 -16.1875 -0.4375 C-10.75964968 -2.24678344 -5.31348516 -2.24801295 0 0 Z " fill="#101010" transform="translate(378.1875,111.4375)"/>
<path d="M0 0 C4.66122876 3.74440619 7.7339062 7.59434926 8.6875 13.58203125 C8.91431601 19.64420462 7.65109783 23.86856356 3.6875 28.58203125 C-2.04733269 34.12169947 -6.56687635 34.93851797 -14.36328125 34.86328125 C-19.60784204 34.3631377 -22.16412625 31.85800208 -25.5625 28.08203125 C-29.4255016 22.56345754 -30.11663113 18.26637131 -29.3125 11.58203125 C-27.51350379 5.68418572 -24.3892888 1.96655712 -19.3125 -1.41796875 C-12.69199553 -4.34626881 -6.15732196 -3.77552005 0 0 Z " fill="#0E0E0E" transform="translate(454.3125,94.41796875)"/>
<path d="M0 0 C9.19439939 8.33910643 9.19439939 8.33910643 9.92578125 14.41796875 C10.14720899 21.00253041 8.77866307 26.01638132 4.296875 30.9765625 C0.48196541 34.40998113 -3.25640672 36.34075217 -8.41015625 36.50390625 C-14.34226791 36.16812634 -18.78353488 34.27994778 -23.3125 30.4375 C-27.06676435 25.62434058 -28.69907099 21.78686894 -28.5859375 15.62109375 C-27.75848686 9.01330938 -23.99594735 4.65314627 -18.99609375 0.56640625 C-13.59268349 -3.05676211 -5.66198738 -2.67074876 0 0 Z " fill="#0E0E0E" transform="translate(749.3125,241.5625)"/>
<path d="M0 0 C5.03391023 2.07080588 9.26173094 5.26068816 12 10 C14.08144487 15.89224942 14.58680771 21.02323533 12.24609375 26.890625 C9.35103507 31.7913513 5.06437097 34.94585312 0.0625 37.5 C-5.54256815 38.41511317 -10.7170694 37.9258217 -15.8125 35.3125 C-20.1048264 32.19845928 -22.33070475 29.00788575 -24 24 C-24.73024091 17.26023553 -24.30218379 11.44168111 -20 6 C-14.13703965 0.3073331 -8.04586584 -1.59018587 0 0 Z " fill="#0E0E0E" transform="translate(412,240)"/>
<path d="M0 0 C5.26172788 2.24022051 9.89140399 5.71439263 12.41015625 10.94921875 C14.0193757 16.54418702 14.09539624 22.63995177 11.375 27.875 C7.48478112 32.99370905 3.52131374 36.72131103 -3 38 C-9.06364221 38.08740385 -13.26625074 36.98065279 -18 33 C-21.59125064 29.2455107 -23.97337282 26.13313592 -25 21 C-24.80398563 14.82554744 -23.51272307 11.07393333 -20 6 C-13.83902195 0.3010953 -8.30517378 -1.26822248 0 0 Z " fill="#0D0D0D" transform="translate(653,277)"/>
<path d="M0 0 C5.1262551 2.72721298 8.48494436 6.69860203 11.20703125 11.75390625 C12.78768247 17.64542444 12.11297366 22.13796865 9.2265625 27.390625 C6.28052919 31.64984618 2.61961326 34.45386525 -1.98046875 36.75390625 C-7.13241906 37.6812573 -11.60631955 37.62989207 -16.3203125 35.15234375 C-20.78289472 32.04432559 -24.45449188 28.60160894 -26.10546875 23.31640625 C-26.9269735 17.37702134 -26.65683371 12.31051323 -23.10546875 7.31640625 C-16.19756533 0.50738897 -9.97905671 -3.23995348 0 0 Z " fill="#0F0F0F" transform="translate(562.10546875,240.68359375)"/>
<path d="M0 0 C4.91416932 2.46255701 8.39570732 6.56847183 10.94140625 11.37890625 C12.56947944 16.59055955 12.33448949 21.45210983 10.15234375 26.45703125 C7.18625 31.16450908 2.90423793 34.37660922 -1.99609375 36.87890625 C-7.6813926 37.80711831 -12.29211855 37.34546815 -17.37109375 34.56640625 C-22.00746 30.79261977 -24.70234765 28.3689932 -26.05859375 22.37890625 C-26.64855874 16.6138098 -26.33126088 12.34433225 -23.05859375 7.37890625 C-16.55270818 0.0169831 -9.77291466 -2.94856438 0 0 Z " fill="#0E0E0E" transform="translate(488.05859375,240.62109375)"/>
<path d="M0 0 C4.14209674 2.93789955 7.28721191 6.52179198 8.89453125 11.34375 C9.42818773 17.30633491 9.46634302 22.3208897 5.89453125 27.34375 C0.97798279 32.28078408 -2.68693616 35.44475603 -9.85546875 35.65625 C-15.76048161 35.57889175 -19.33631627 34.09851728 -23.609375 29.84765625 C-28.16065015 24.64805131 -28.58069787 20.18144459 -28.5078125 13.4921875 C-27.85305394 8.36854288 -25.71123505 4.97253183 -22.10546875 1.34375 C-15.08369794 -3.9875945 -7.61179516 -4.20375275 0 0 Z " fill="#0F0F0F" transform="translate(231.10546875,186.65625)"/>
<path d="M0 0 C5.08170909 2.02819317 8.82666005 5.05576085 11.5625 9.8125 C13.98406501 15.67112503 13.98406501 21.32887497 11.5625 27.1875 C8.27394053 33.01827921 2.76041113 36.16201805 -3.5 38.0625 C-10.18192679 37.94317988 -16.27837082 35.86050063 -21 31 C-24.24746742 25.89683691 -25.54265166 20.70279957 -24.66796875 14.734375 C-22.97198038 8.30056106 -19.32608925 4.79950316 -14 1 C-9.73994115 -1.13002943 -4.61400684 -0.58311988 0 0 Z " fill="#0F0F0F" transform="translate(431,166)"/>
<path d="M0 0 C5.58043218 2.63802248 9.34200599 6.99982037 12.3125 12.375 C13.58920458 17.24969022 13.54412754 21.3336094 12 26.0625 C8.60408828 31.05024534 4.40266029 34.79866985 -1 37.5 C-7.20880958 38.5348016 -11.43685018 37.6393489 -16.75 34.4375 C-21.07388801 31.30100092 -23.58499998 28.17890007 -25 23 C-25.82931875 17.3201309 -25.33877448 12.79948832 -22 8 C-14.77795414 0.8665682 -10.25902195 -0.95464031 0 0 Z " fill="#0F0F0F" transform="translate(672,203)"/>
<path d="M0 0 C5.27268726 3.80123965 9.5077375 8.38326387 10.6875 14.9375 C10.76416848 21.00526218 9.67336201 25.19755599 5.6875 29.9375 C1.25528754 34.47278717 -2.8790904 36.69332769 -9.3125 36.9375 C-15.47314695 35.95138984 -19.99502596 33.35777105 -24.3125 28.9375 C-27.51460886 24.4545476 -27.95036766 20.13953908 -27.7890625 14.7578125 C-26.84842664 9.19109865 -23.83017409 5.25476222 -19.7421875 1.4921875 C-13.92369487 -2.52735089 -6.4869043 -2.08070515 0 0 Z " fill="#0E0E0E" transform="translate(526.3125,167.0625)"/>
<path d="M0 0 C4.66122876 3.74440619 7.7339062 7.59434926 8.6875 13.58203125 C8.91431601 19.64420462 7.65109783 23.86856356 3.6875 28.58203125 C-1.67215543 33.75929003 -6.04346836 35.06609053 -13.38671875 34.98828125 C-19.03358073 34.20420429 -22.96782494 31.12948902 -26.7578125 27.01171875 C-30.16374604 22.08145131 -30.27346969 16.3478494 -29.3125 10.58203125 C-26.70615468 4.17298538 -22.4694632 -0.05614149 -16.125 -2.79296875 C-10.20034856 -3.76422308 -5.18297293 -3.17807293 0 0 Z " fill="#0D0D0D" transform="translate(528.3125,94.41796875)"/>
<path d="M0 0 C3.79245637 2.64857783 6.86094673 6.2101747 8.9296875 10.34765625 C9.67585986 17.27639957 9.63545471 22.97947719 5.4296875 28.7265625 C1.90986866 32.53053338 -2.11449702 35.03243817 -7.3046875 35.5859375 C-13.55215896 35.77025731 -17.02638888 35.10587385 -22.0703125 31.34765625 C-26.49990056 26.94107904 -28.2167273 23.27616435 -28.3203125 17.03515625 C-28.23968796 11.46473342 -27.49420233 7.83139521 -23.48828125 3.7265625 C-16.24142357 -2.85718402 -8.95121354 -4.85873264 0 0 Z " fill="#0F0F0F" transform="translate(305.0703125,223.65234375)"/>
<path d="M0 0 C5.17373368 2.70369308 8.57912228 6.95887973 10.81640625 12.26171875 C11.75173185 19.36366778 11.16210873 24.54368917 6.81640625 30.26171875 C2.25382515 34.83621259 -1.49953917 36.41908292 -7.93359375 36.57421875 C-13.67732003 36.51178694 -16.67810169 35.82856663 -21.18359375 32.26171875 C-26.19804433 25.79571668 -26.95664803 20.24994633 -26.18359375 12.26171875 C-24.65222847 7.10189561 -20.93778554 3.39583284 -16.59375 0.3671875 C-11.35831294 -2.03415559 -5.40970973 -1.82904318 0 0 Z " fill="#0C0C0C" transform="translate(303.18359375,129.73828125)"/>
<path d="M0 0 C5.08845117 2.35576443 8.76547443 6.4590211 12 11 C13.58298753 15.74896259 14.04444338 20.47442786 12.09375 25.19140625 C9.09595134 30.25499566 5.32729672 34.33635164 0 37 C-5.44878691 37.49756886 -10.35655002 37.76085647 -15.375 35.4375 C-24.61821996 26.85451004 -24.61821996 26.85451004 -25.203125 20.94921875 C-25.30912884 15.83453354 -25.01021483 12.32718382 -22 8 C-14.7721429 0.86082826 -10.26376525 -0.94286557 0 0 Z " fill="#0E0E0E" transform="translate(672,129)"/>
<path d="M0 0 C0.66 0.33 1.32 0.66 2 1 C-5.92 8.92 -13.84 16.84 -22 25 C-22.66 24.67 -23.32 24.34 -24 24 C-16.32908807 15.59591248 -8.68092794 7.38078896 0 0 Z " fill="#6D6D6D" transform="translate(55,396)"/>
<path d="M0 0 C0.66 0.33 1.32 0.66 2 1 C-1.3 4.3 -4.6 7.6 -8 11 C-8 7.45459812 -7.40614728 6.93992636 -5.125 4.375 C-4.59132813 3.76398438 -4.05765625 3.15296875 -3.5078125 2.5234375 C-2 1 -2 1 0 0 Z " fill="#5D5D5D" transform="translate(583,112)"/>
<path d="M0 0 C0.66 0.33 1.32 0.66 2 1 C-1.3 4.3 -4.6 7.6 -8 11 C-8 6.67750434 -5.85084926 5.11604454 -3 2 C-2.01 1.34 -1.02 0.68 0 0 Z " fill="#666666" transform="translate(287,130)"/>
<path d="M0 0 C-1.38188453 3.21043882 -2.92421903 5.04936365 -5.625 7.25 C-6.57246094 8.03117188 -6.57246094 8.03117188 -7.5390625 8.828125 C-8.02117188 9.21484375 -8.50328125 9.6015625 -9 10 C-7.6834994 5.81113445 -4.97532335 0 0 0 Z " fill="#535353" transform="translate(732,242)"/>
<path d="M0 0 C0.66 0.33 1.32 0.66 2 1 C-0.97 3.97 -3.94 6.94 -7 10 C-7.33 9.34 -7.66 8.68 -8 8 C-7.04578192 6.85073734 -6.08647955 5.70569459 -5.125 4.5625 C-4.59132813 3.92441406 -4.05765625 3.28632813 -3.5078125 2.62890625 C-2 1 -2 1 0 0 Z " fill="#5E5E5E" transform="translate(583,186)"/>
<path d="M0 0 C0.66 0.33 1.32 0.66 2 1 C-0.97 3.97 -3.94 6.94 -7 10 C-7 5.69032084 -4.83274712 4.10253255 -2 1 C-1.34 0.67 -0.68 0.34 0 0 Z " fill="#6F6F6F" transform="translate(638,279)"/>
<path d="M0 0 C0.66 0.33 1.32 0.66 2 1 C-0.97 3.97 -3.94 6.94 -7 10 C-7 6.04435836 -5.59478606 4.89133304 -3 2 C-2.01 1.34 -1.02 0.68 0 0 Z " fill="#7A7A7A" transform="translate(805,223)"/>
<path d="M0 0 C-1.5830577 4.2742558 -4.50568404 6.26531794 -8 9 C-6.68994234 5.06982701 -4.75047804 0 0 0 Z " fill="#5E5E5E" transform="translate(560,462)"/>
<path d="M0 0 C-1.5830577 4.2742558 -4.50568404 6.26531794 -8 9 C-6.68994234 5.06982701 -4.75047804 0 0 0 Z " fill="#6B6B6B" transform="translate(342,187)"/>
<path d="M0 0 C0.66 0.33 1.32 0.66 2 1 C0.88121617 2.17262904 -0.24523051 3.33795138 -1.375 4.5 C-2.00148438 5.1496875 -2.62796875 5.799375 -3.2734375 6.46875 C-5 8 -5 8 -7 8 C-5.50902342 4.2047869 -3.24299151 2.38957269 0 0 Z " fill="#747474" transform="translate(509,93)"/>
<path d="M0 0 C0.66 0.33 1.32 0.66 2 1 C0.88121617 2.17262904 -0.24523051 3.33795138 -1.375 4.5 C-2.00148438 5.1496875 -2.62796875 5.799375 -3.2734375 6.46875 C-5 8 -5 8 -7 8 C-5.50902342 4.2047869 -3.24299151 2.38957269 0 0 Z " fill="#6C6C6C" transform="translate(435,93)"/>
<path d="M0 0 C0.66 0.33 1.32 0.66 2 1 C-0.64 3.64 -3.28 6.28 -6 9 C-6 6 -6 6 -3.5625 3.375 C-2.716875 2.59125 -1.87125 1.8075 -1 1 C-0.67 0.67 -0.34 0.34 0 0 Z " fill="#676767" transform="translate(397,242)"/>
<path d="M0 0 C-1.28519565 2.86697492 -2.57129254 4.97607712 -5 7 C-5.66 7 -6.32 7 -7 7 C-3.86206897 0 -3.86206897 0 0 0 Z " fill="#646464" transform="translate(194,261)"/>
<path d="M0 0 C0.66 0.33 1.32 0.66 2 1 C-0.64 3.64 -3.28 6.28 -6 9 C-6 6 -6 6 -3.5625 3.375 C-2.716875 2.59125 -1.87125 1.8075 -1 1 C-0.67 0.67 -0.34 0.34 0 0 Z " fill="#6D6D6D" transform="translate(471,242)"/>
<path d="M0 0 C-1.28519565 2.86697492 -2.57129254 4.97607712 -5 7 C-5.66 7 -6.32 7 -7 7 C-3.86206897 0 -3.86206897 0 0 0 Z " fill="#6D6D6D" transform="translate(731,150)"/>
<path d="M0 0 C0.66 0.33 1.32 0.66 2 1 C0.02 2.98 -1.96 4.96 -4 7 C-4.66 6.67 -5.32 6.34 -6 6 C-4 4 -2 2 0 0 Z " fill="#656565" transform="translate(508,168)"/>
</svg>
